<svg width="36" height="36" viewBox="0 0 36 36" fill="none" xmlns="http://www.w3.org/2000/svg">
<circle cx="17.5976" cy="17.5976" r="17.5976" fill="white"/>
<path d="M13.3147 21.3616L13.9681 21.7393C15.0699 22.3749 16.3231 22.7086 17.5986 22.706C19.0265 22.706 20.4223 22.2872 21.6096 21.5025C22.7968 20.7178 23.7222 19.6024 24.2686 18.2975C24.815 16.9925 24.958 15.5566 24.6794 14.1713C24.4008 12.786 23.7133 11.5135 22.7036 10.5148C21.6939 9.516 20.4075 8.83584 19.0071 8.56029C17.6066 8.28473 16.155 8.42616 14.8358 8.96668C13.5166 9.5072 12.3891 10.4225 11.5958 11.597C10.8025 12.7714 10.3791 14.1521 10.3791 15.5646C10.3791 16.8464 10.7193 18.0757 11.3574 19.1567L11.7382 19.803L11.1489 21.9464L13.3147 21.3616ZM8.57784 24.4914L9.79794 20.0565C8.99399 18.6933 8.57161 17.1428 8.57423 15.5646C8.57423 10.6342 12.6145 6.6377 17.5986 6.6377C22.5828 6.6377 26.623 10.6342 26.623 15.5646C26.623 20.4949 22.5828 24.4914 17.5986 24.4914C16.0038 24.494 14.4371 24.0765 13.0594 23.2818L8.57784 24.4914ZM14.3417 11.3761C14.4626 11.3671 14.5845 11.3671 14.7054 11.3725C14.7541 11.3761 14.8029 11.3814 14.8516 11.3868C14.9951 11.4029 15.153 11.4894 15.2063 11.6091C15.4752 12.2125 15.7369 12.8204 15.9896 13.4301C16.0455 13.5658 16.0121 13.7399 15.9056 13.9095C15.8324 14.0242 15.7532 14.135 15.6683 14.2416C15.5663 14.371 15.347 14.6085 15.347 14.6085C15.347 14.6085 15.2577 14.7138 15.292 14.845C15.3046 14.895 15.3461 14.9673 15.384 15.028L15.4373 15.1129C15.6683 15.494 15.9787 15.8806 16.3578 16.2448C16.4661 16.3483 16.5716 16.4546 16.6854 16.5536C17.1077 16.9223 17.586 17.2232 18.1022 17.4463L18.1067 17.4481C18.1834 17.4811 18.2222 17.499 18.3341 17.5463C18.3901 17.5695 18.4478 17.5901 18.5065 17.6052C18.5671 17.6205 18.6309 17.6176 18.6899 17.597C18.7489 17.5763 18.8003 17.5388 18.8377 17.4892C19.491 16.7063 19.5506 16.6554 19.556 16.6554V16.6572C19.6014 16.6153 19.6553 16.5835 19.7142 16.564C19.773 16.5444 19.8354 16.5376 19.8971 16.5438C19.9513 16.5474 20.0063 16.5572 20.0569 16.5795C20.5361 16.7965 21.3203 17.1348 21.3203 17.1348L21.8455 17.3678C21.9339 17.4097 22.0143 17.5088 22.017 17.6043C22.0206 17.6641 22.026 17.7606 22.0052 17.9373C21.9764 18.1685 21.906 18.4461 21.8356 18.5916C21.7874 18.6909 21.7234 18.782 21.6461 18.8612C21.555 18.9558 21.4553 19.0419 21.3483 19.1183C21.3112 19.1459 21.2736 19.1727 21.2355 19.1987C21.1232 19.2691 21.0079 19.3346 20.8898 19.3951C20.6575 19.5171 20.4008 19.5872 20.1381 19.6004C19.9711 19.6093 19.8042 19.6218 19.6363 19.6129C19.6291 19.6129 19.1237 19.5352 19.1237 19.5352C17.8407 19.2014 16.6541 18.576 15.6584 17.7088C15.4544 17.5311 15.2658 17.3401 15.0727 17.15C14.2695 16.3599 13.6631 15.5074 13.2949 14.7022C13.1064 14.307 13.0046 13.8768 12.9962 13.44C12.9925 12.898 13.1716 12.3702 13.5052 11.9402C13.571 11.8563 13.6333 11.7689 13.7407 11.668C13.8553 11.5609 13.9275 11.5037 14.006 11.4644C14.1104 11.4127 14.2243 11.3823 14.3408 11.3752L14.3417 11.3761Z" fill="#023A15"/>
</svg>
