<svg width="36" height="36" viewBox="0 0 36 36" fill="none" xmlns="http://www.w3.org/2000/svg">
<circle cx="17.8651" cy="17.5976" r="17.5976" fill="white"/>
<path fill-rule="evenodd" clip-rule="evenodd" d="M16.0178 18.2037V13.131C17.8468 13.9784 19.2634 14.797 20.9388 15.6795C19.557 16.434 17.8468 17.2806 16.0178 18.2037ZM26.211 10.6082C25.8955 10.1989 25.3578 9.88034 24.7853 9.77487C23.1026 9.46026 12.6048 9.45936 10.923 9.77487C10.4639 9.8596 10.0551 10.0644 9.70391 10.3826C8.22421 11.7348 8.68788 18.9861 9.04454 20.1607C9.19452 20.6691 9.38841 21.0358 9.63259 21.2765C9.94718 21.5947 10.3779 21.8138 10.8727 21.9121C12.2582 22.1942 19.396 22.352 24.756 21.9544C25.2499 21.8697 25.687 21.6435 26.0318 21.3118C27.3999 19.965 27.3066 12.3065 26.211 10.6082Z" fill="#023A15"/>
</svg>
