<svg width="75" height="75" viewBox="0 0 75 75" fill="none" xmlns="http://www.w3.org/2000/svg">
<g filter="url(#filter0_d_873_5870)">
<circle cx="37.5" cy="33.5" r="12.5" fill="#061023"/>
</g>
<path d="M34.6875 30.7935V30.1872C34.6875 28.781 35.8188 27.3997 37.225 27.2685C38.9 27.106 40.3125 28.4247 40.3125 30.0685V30.931" stroke="#FAFBFC" stroke-miterlimit="10" stroke-linecap="round" stroke-linejoin="round"/>
<path d="M32.3818 36.35L32.5255 37.5188C32.663 38.7438 33.113 39.75 35.6255 39.75H39.3755C41.888 39.75 42.338 38.7438 42.4693 37.5188L42.938 33.7688C43.1068 32.2438 42.6693 31 40.0005 31H35.0005C32.3318 31 31.8943 32.2438 32.063 33.7688" stroke="#FAFBFC" stroke-miterlimit="10" stroke-linecap="round" stroke-linejoin="round"/>
<path d="M39.6838 33.5H39.6895" stroke="#FAFBFC" stroke-linecap="round" stroke-linejoin="round"/>
<path d="M35.3088 33.5H35.3145" stroke="#FAFBFC" stroke-linecap="round" stroke-linejoin="round"/>
<defs>
<filter id="filter0_d_873_5870" x="0" y="0" width="75" height="75" filterUnits="userSpaceOnUse" color-interpolation-filters="sRGB">
<feFlood flood-opacity="0" result="BackgroundImageFix"/>
<feColorMatrix in="SourceAlpha" type="matrix" values="0 0 0 0 0 0 0 0 0 0 0 0 0 0 0 0 0 0 127 0" result="hardAlpha"/>
<feOffset dy="4"/>
<feGaussianBlur stdDeviation="12.5"/>
<feComposite in2="hardAlpha" operator="out"/>
<feColorMatrix type="matrix" values="0 0 0 0 0 0 0 0 0 0 0 0 0 0 0 0 0 0 0.15 0"/>
<feBlend mode="normal" in2="BackgroundImageFix" result="effect1_dropShadow_873_5870"/>
<feBlend mode="normal" in="SourceGraphic" in2="effect1_dropShadow_873_5870" result="shape"/>
</filter>
</defs>
</svg>
