<svg width="36" height="36" viewBox="0 0 36 36" fill="none" xmlns="http://www.w3.org/2000/svg">
<circle cx="18.4022" cy="17.5976" r="17.5976" fill="white"/>
<path d="M18.7367 8.4864C21.1778 8.4864 21.4644 8.49716 22.4292 8.54022C23.3215 8.57969 23.8039 8.7268 24.1268 8.85238C24.5548 9.01743 24.8595 9.21118 25.1787 9.52693C25.4979 9.84268 25.6974 10.1441 25.8606 10.5675C25.9839 10.8868 26.1363 11.364 26.1762 12.2467C26.2197 13.2011 26.2306 13.4846 26.2306 15.8993C26.2306 18.3141 26.2197 18.5975 26.1762 19.552C26.1363 20.4346 25.9876 20.9118 25.8606 21.2312C25.6937 21.6546 25.4979 21.9559 25.1787 22.2717C24.8595 22.5874 24.5548 22.7848 24.1268 22.9463C23.8039 23.0682 23.3215 23.2189 22.4292 23.2584C21.4644 23.3015 21.1778 23.3122 18.7367 23.3122C16.2955 23.3122 16.009 23.3015 15.0441 23.2584C14.1518 23.2189 13.6694 23.0718 13.3466 22.9463C12.9185 22.7812 12.6139 22.5874 12.2947 22.2717C11.9755 21.9559 11.776 21.6546 11.6127 21.2312C11.4894 20.9118 11.3371 20.4346 11.2972 19.552C11.2536 18.5975 11.2428 18.3141 11.2428 15.8993C11.2428 13.4846 11.2536 13.2011 11.2972 12.2467C11.3371 11.364 11.4858 10.8868 11.6127 10.5675C11.7796 10.1441 11.9755 9.84268 12.2947 9.52693C12.6139 9.21118 12.9185 9.01384 13.3466 8.85238C13.6694 8.73039 14.1518 8.57969 15.0441 8.54022C16.009 8.49357 16.2955 8.4864 18.7367 8.4864ZM18.7367 6.85742C16.2556 6.85742 15.9437 6.86819 14.9679 6.91124C13.9958 6.9543 13.3321 7.10859 12.7517 7.33104C12.1496 7.56068 11.6418 7.87284 11.1339 8.37517C10.6261 8.8775 10.3142 9.38341 10.0784 9.97544C9.85352 10.5495 9.69755 11.2061 9.65402 12.1713C9.61049 13.1329 9.59961 13.4415 9.59961 15.8957C9.59961 18.35 9.61049 18.6585 9.65402 19.6237C9.69755 20.5853 9.85352 21.2419 10.0784 21.8196C10.3106 22.4152 10.6261 22.9175 11.1339 23.4199C11.6418 23.9222 12.1532 24.2308 12.7517 24.464C13.3321 24.6865 13.9958 24.8407 14.9716 24.8838C15.9473 24.9269 16.2556 24.9376 18.7403 24.9376C21.225 24.9376 21.5333 24.9269 22.509 24.8838C23.4811 24.8407 24.1449 24.6865 24.7289 24.464C25.331 24.2344 25.8388 23.9222 26.3467 23.4199C26.8545 22.9175 27.1664 22.4116 27.4022 21.8196C27.6271 21.2455 27.783 20.5889 27.8266 19.6237C27.8701 18.6585 27.881 18.3535 27.881 15.8957C27.881 13.4379 27.8701 13.1329 27.8266 12.1677C27.783 11.2061 27.6271 10.5495 27.4022 9.97185C27.17 9.37624 26.8545 8.87391 26.3467 8.37158C25.8388 7.86925 25.3274 7.56068 24.7289 7.32746C24.1485 7.105 23.4847 6.95071 22.509 6.90765C21.5297 6.86819 21.2177 6.85742 18.7367 6.85742Z" fill="#023A15"/>
<path d="M18.7366 11.2524C16.1468 11.2524 14.043 13.3299 14.043 15.8954C14.043 18.4608 16.1468 20.5383 18.7366 20.5383C21.3265 20.5383 23.4303 18.4573 23.4303 15.8954C23.4303 13.3335 21.3265 11.2524 18.7366 11.2524ZM18.7366 18.9093C17.0536 18.9093 15.6897 17.5602 15.6897 15.8954C15.6897 14.2305 17.0536 12.8814 18.7366 12.8814C20.4197 12.8814 21.7835 14.2305 21.7835 15.8954C21.7835 17.5602 20.4197 18.9093 18.7366 18.9093Z" fill="#023A15"/>
<path d="M23.615 12.153C24.22 12.153 24.7104 11.6679 24.7104 11.0694C24.7104 10.471 24.22 9.98584 23.615 9.98584C23.01 9.98584 22.5195 10.471 22.5195 11.0694C22.5195 11.6679 23.01 12.153 23.615 12.153Z" fill="#023A15"/>
</svg>
